# xmcd
#
# Track frame offsets:
#	150
#	19007
#	38742
#	57672
#	73940
#	92542
#	112322
#	130257
#	150002
#	167617
#	184380
#	208167
#
# Disc length: 3036 seconds
#
# Revision: 1
# Processed by: cddbd v1.5.2PL0 Copyright (c) Steve Scherf et al.
# Submitted via: EZCDAudioConverter 7.1.5.1
#
DISCID=a70bda0c
DTITLE=王心凌 - 王心凌 美丽的日子 新歌×精选 爱恋日记 CD3 日落盘
DYEAR=2009
DGENRE=
TTITLE0=那年夏天宁静的海
TTITLE1=原来这才是真的你
TTITLE2=我和你
TTITLE3=约定
TTITLE4=迷你电影
TTITLE5=蝴蝶
TTITLE6=这就是爱
TTITLE7=瞬间
TTITLE8=日落前七分钟
TTITLE9=还是好朋友
TTITLE10=睁开眼
TTITLE11=因为是你
EXTD=
EXTT0=
EXTT1=
EXTT2=
EXTT3=
EXTT4=
EXTT5=
EXTT6=
EXTT7=
EXTT8=
EXTT9=
EXTT10=
EXTT11=
PLAYORDER=
